<svg version="1.2" baseProfile="tiny"
	xmlns="http://www.w3.org/2000/svg" xmlns:xlink="http://www.w3.org/1999/xlink"
  width="16px" height="16px" viewBox="0 0 512 412" xml:space="preserve">
<path fill="#828282" d="M216.057,378.813C133.321,386.966,61.9,349.579,56.52,295.251c-5.37-54.314,57.369-104.972,140.095-113.148
	c82.747-8.19,154.175,29.217,159.542,83.516C361.52,319.958,298.803,370.633,216.057,378.813 M381.553,198.479
	c-7.043-2.101-11.869-3.543-8.182-12.784c7.979-20.082,8.803-37.406,0.154-49.762c-16.225-23.174-60.617-21.928-111.504-0.623
	c0-0.026-15.981,6.995-11.897-5.685c7.828-25.163,6.65-46.234-5.531-58.403c-27.603-27.626-101.015,1.045-163.975,63.979
	C33.475,182.35,6.101,232.319,6.101,275.532c0,82.652,105.988,132.897,209.681,132.897c135.925,0,226.347-78.977,226.347-141.672
	C442.129,228.873,410.221,207.379,381.553,198.479"/>
<path fill="#828282" d="M471.813,47.23C438.99,10.84,390.572-3.026,345.877,6.474h-0.018c-10.326,2.206-16.932,12.382-14.707,22.708
	c2.195,10.325,12.367,16.932,22.709,14.72c31.791-6.75,66.191,3.135,89.543,28.976c23.309,25.848,29.641,61.111,19.658,92.015v0.011
	c-3.256,10.075,2.252,20.846,12.328,24.097c10.051,3.254,20.84-2.252,24.092-12.291c0-0.014,0-0.051,0.008-0.073
	C513.502,133.144,504.656,83.585,471.813,47.23"/>
<path fill="#828282" d="M421.4,92.722c-15.975-17.717-39.559-24.452-61.34-19.826c-8.9,1.896-14.574,10.657-12.666,19.569
	c1.908,8.864,10.658,14.569,19.537,12.635v0.018c10.641-2.257,22.184,1.024,30.004,9.668c7.814,8.673,9.916,20.483,6.553,30.844
	h0.018c-2.789,8.642,1.939,17.936,10.598,20.746c8.668,2.772,17.947-1.952,20.736-10.61c6.846-21.195,2.57-45.326-13.439-63.047"/>
<path d="M220.623,280.424c-2.895,4.957-9.293,7.332-14.3,5.269c-4.933-2.023-6.478-7.56-3.678-12.427
	c2.885-4.835,9.037-7.197,13.95-5.25C221.593,269.847,223.385,275.445,220.623,280.424 M194.258,314.268
	c-8,12.765-25.137,18.359-38.05,12.469c-12.719-5.789-16.47-20.626-8.466-33.073c7.904-12.396,24.463-17.926,37.282-12.55
	C197.979,286.632,202.124,301.367,194.258,314.268 M224.33,223.904c-39.375-10.249-83.879,9.377-100.979,44.072
	c-17.416,35.382-0.575,74.66,39.198,87.502c41.211,13.285,89.773-7.078,106.664-45.266
	C285.871,272.874,265.074,234.435,224.33,223.904"/>
</svg>

